<svg xmlns="http://www.w3.org/2000/svg" viewBox="0 0 64 64">
  <path fill="#a8aab1" d="M14 22h36a4 4 0 0 1 4 4v28a4 4 0 0 1-4 4H14a4 4 0 0 1-4-4V26a4 4 0 0 1 4-4z"/>
  <path fill="#0a0a0f" d="M14 22h36a4 4 0 0 1 4 4v22H10V26a4 4 0 0 1 4-4z"/>
  <path fill="none" stroke="#0a0a0f" stroke-width="4" stroke-linecap="round" d="M22 22v-4a10 10 0 0 1 20 0v4"/>
  <path fill="none" stroke="#ffffff" stroke-width="5" stroke-linecap="round" stroke-linejoin="round" d="M40 32H26a4 4 0 0 0 0 8h12a4 4 0 0 1 0 8H24"/>
</svg>
